<svg width="16" height="16" viewBox="0 0 16 16" fill="none" xmlns="http://www.w3.org/2000/svg">
<g clip-path="url(#clip0_63_2711)">
<path d="M7.22089 2.0596L1.81335 4.29717C1.51264 4.42162 1.51575 4.84875 1.81835 4.96869L7.24852 7.12207C7.72566 7.31128 8.257 7.31128 8.73406 7.12207L14.1643 4.96869C14.4668 4.84875 14.47 4.42162 14.1692 4.29717L8.76177 2.0596C8.26839 1.85546 7.71418 1.85546 7.22089 2.0596Z" fill="#FFBF00"/>
<path d="M8.47314 8.29797V13.6774C8.47314 13.9333 8.73115 14.1085 8.96898 14.0142L15.0198 11.6655C15.158 11.6108 15.2486 11.4773 15.2486 11.3287V5.94931C15.2486 5.69344 14.9906 5.51825 14.7527 5.61253L8.70188 7.96118C8.56382 8.01595 8.47314 8.14942 8.47314 8.29797Z" fill="#26B5F8"/>
<path d="M7.06021 8.57555L5.26445 9.44261L5.08212 9.53074L1.29138 11.3471C1.05108 11.463 0.744385 11.2879 0.744385 11.021V5.97193C0.744385 5.87535 0.793903 5.79197 0.860309 5.72917C0.88802 5.70138 0.919419 5.67851 0.952048 5.66039C1.04264 5.60604 1.17185 5.59153 1.2817 5.63498L7.03004 7.91255C7.32223 8.02848 7.34519 8.4379 7.06021 8.57555Z" fill="#ED3049"/>
<path d="M7.06026 8.57555L5.2645 9.44261L0.860352 5.72917C0.888062 5.70138 0.919462 5.67851 0.952091 5.66039C1.04268 5.60604 1.17189 5.59153 1.28175 5.63498L7.03009 7.91255C7.32228 8.02848 7.34523 8.4379 7.06026 8.57555Z" fill="black" fill-opacity="0.25"/>
</g>
<defs>
<clipPath id="clip0_63_2711">
<rect width="14.511" height="12.187" fill="white" transform="translate(0.744385 1.90649)"/>
</clipPath>
</defs>
</svg>
