<svg width="16" height="16" viewBox="0 0 16 16" fill="none" xmlns="http://www.w3.org/2000/svg">
<g clip-path="url(#clip0_63_2682)">
<path d="M5.79346 15.0537C7.0864 15.0537 8.13574 14.0044 8.13574 12.7114V10.3691H5.79346C4.50052 10.3691 3.45117 11.4185 3.45117 12.7114C3.45117 14.0044 4.50052 15.0537 5.79346 15.0537Z" fill="#0ACF83"/>
<path d="M3.45117 8.02686C3.45117 6.73391 4.50052 5.68457 5.79346 5.68457H8.13574V10.3691H5.79346C4.50052 10.3691 3.45117 9.3198 3.45117 8.02686Z" fill="#A259FF"/>
<path d="M3.45117 3.34229C3.45117 2.04934 4.50052 1 5.79346 1H8.13574V5.68457H5.79346C4.50052 5.68457 3.45117 4.63523 3.45117 3.34229Z" fill="#F24E1E"/>
<path d="M8.13574 1H10.478C11.771 1 12.8203 2.04934 12.8203 3.34229C12.8203 4.63523 11.771 5.68457 10.478 5.68457H8.13574V1Z" fill="#FF7262"/>
<path d="M12.8203 8.02686C12.8203 9.3198 11.771 10.3691 10.478 10.3691C9.18509 10.3691 8.13574 9.3198 8.13574 8.02686C8.13574 6.73391 9.18509 5.68457 10.478 5.68457C11.771 5.68457 12.8203 6.73391 12.8203 8.02686Z" fill="#1ABCFE"/>
</g>
<defs>
<clipPath id="clip0_63_2682">
<rect width="9.36914" height="14.0537" fill="white" transform="translate(3.45117 1)"/>
</clipPath>
</defs>
</svg>
