<svg width="16" height="16" viewBox="0 0 16 16" fill="none" xmlns="http://www.w3.org/2000/svg">
<g clip-path="url(#clip0_63_2742)">
<path d="M2.43663 1.5164L9.94803 0.961647C10.8707 0.88246 11.1078 0.935855 11.6879 1.35758L14.0856 3.04674C14.4811 3.33724 14.6128 3.41643 14.6128 3.73272V12.9966C14.6128 13.5772 14.4019 13.9206 13.6639 13.9731L4.94118 14.5012C4.38733 14.5274 4.12352 14.4482 3.83348 14.0786L2.06784 11.7826C1.7511 11.36 1.61987 11.0437 1.61987 10.674V2.43949C1.61987 1.96483 1.83074 1.56889 2.43663 1.5164Z" fill="white"/>
<path d="M9.94803 0.961647L2.43663 1.5164C1.83074 1.56889 1.61987 1.96483 1.61987 2.43949V10.674C1.61987 11.0437 1.7511 11.36 2.06784 11.7826L3.83348 14.0786C4.12352 14.4482 4.38733 14.5274 4.94118 14.5012L13.6639 13.9731C14.4015 13.9206 14.6128 13.5772 14.6128 12.9966V3.73272C14.6128 3.43272 14.4942 3.34629 14.1454 3.09018C14.1253 3.07572 14.1052 3.06124 14.0852 3.04674L11.6879 1.35758C11.1078 0.935855 10.8707 0.88246 9.94803 0.961647ZM5.13847 3.58114C4.42624 3.6291 4.2647 3.63996 3.86017 3.311L2.83165 2.49289C2.72713 2.387 2.77962 2.25488 3.04297 2.22863L10.2639 1.70102C10.8702 1.64808 11.1861 1.8594 11.4232 2.04401L12.6616 2.94131C12.7146 2.96801 12.8463 3.12593 12.6879 3.12593L5.23078 3.5748L5.13847 3.58114ZM4.30814 12.9175V5.0531C4.30814 4.70966 4.41357 4.55128 4.72941 4.52459L13.2942 4.02322C13.5847 3.99698 13.716 4.1816 13.716 4.52459V12.3365C13.716 12.6799 13.663 12.9704 13.1888 12.9966L4.99277 13.4718C4.51855 13.498 4.30814 13.3401 4.30814 12.9175ZM12.3987 5.47483C12.4512 5.71239 12.3987 5.94995 12.1612 5.9771L11.7662 6.05538V11.8618C11.4232 12.0464 11.1073 12.1518 10.8435 12.1518C10.4218 12.1518 10.3164 12.0197 10.0005 11.6242L7.41723 7.55992V11.4921L8.23444 11.6772C8.23444 11.6772 8.23444 12.1523 7.57515 12.1523L5.75748 12.2577C5.70454 12.1518 5.75748 11.888 5.94165 11.8355L6.41631 11.7039V6.5047L5.75748 6.45131C5.70454 6.21375 5.83622 5.87076 6.20545 5.84406L8.1557 5.71284L10.8435 9.82963V6.1875L10.1584 6.10877C10.1055 5.81782 10.3164 5.6065 10.5797 5.58071L12.3987 5.47483Z" fill="black"/>
</g>
<defs>
<clipPath id="clip0_63_2742">
<rect width="12.9929" height="13.602" fill="white" transform="translate(1.61987 0.930786)"/>
</clipPath>
</defs>
</svg>
