<svg width="16" height="16" viewBox="0 0 16 16" fill="none" xmlns="http://www.w3.org/2000/svg">
<g clip-path="url(#clip0_63_2729)">
<path d="M1.28045 1.38535C1.25246 1.272 1.35758 1.17082 1.46977 1.20312L4.73881 2.14429C4.76808 2.14418 4.79702 2.15252 4.82174 2.16818L11.269 4.02437C11.2957 4.02492 11.322 4.03249 11.345 4.04622L14.6143 4.9875C14.7266 5.01984 14.7617 5.16168 14.6775 5.24271L4.81194 14.7326C4.72774 14.8136 4.58743 14.773 4.55941 14.6596L2.9229 8.03454C2.92071 8.02774 2.91899 8.02079 2.91776 8.01375L1.28045 1.38535ZM4.08073 11.4563L4.79096 14.3315L6.92976 12.2741L4.08073 11.4563ZM6.2838 9.18248L4.21307 11.1785L6.97165 11.9704L6.2838 9.18248ZM6.59119 9.16117L7.27684 11.9403L9.34193 9.95382L6.59119 9.16117ZM3.27799 8.20645L3.96663 10.9945L6.03493 9.00089L3.27799 8.20645ZM8.72578 6.826L6.62182 8.85406L9.42564 9.66204L8.72578 6.826ZM9.0206 6.75388L9.72043 9.58978L11.8302 7.5604L9.0206 6.75388ZM5.47042 5.88494L3.36194 7.91477L6.17088 8.72415L5.47042 5.88494ZM5.76411 5.80838L6.45195 8.59624L8.52269 6.60025L5.76411 5.80838ZM2.45176 4.86162L3.1518 7.69578L5.25876 5.66741L2.45176 4.86162ZM11.1822 4.46813L9.11143 6.46412L11.87 7.25607L11.1822 4.46813ZM11.4781 4.40038L12.1757 7.22798L14.2774 5.20635L11.4781 4.40038ZM7.9133 3.5333L5.85185 5.51779L8.59745 6.30594L7.9133 3.5333ZM8.2075 3.45874L8.8963 6.24999L10.9676 4.2534L8.2075 3.45874ZM4.65567 2.58808L2.58494 4.58407L5.34351 5.37602L4.65567 2.58808ZM4.95187 2.52141L5.638 5.30231L7.70372 3.3137L4.95187 2.52141ZM1.63804 1.56735L2.33792 4.4007L4.44037 2.37416L1.63804 1.56735Z" fill="black"/>
</g>
<defs>
<clipPath id="clip0_63_2729">
<rect width="13.4482" height="13.6058" fill="white" transform="translate(1.27588 1.19702)"/>
</clipPath>
</defs>
</svg>
