<svg width="22" height="22" viewBox="0 0 22 22" fill="none" xmlns="http://www.w3.org/2000/svg">
<g id="Feather file-text (2) 1">
<path id="Vector" d="M12.75 2.25H5.75C5.28587 2.25 4.84075 2.43437 4.51256 2.76256C4.18437 3.09075 4 3.53587 4 4V18C4 18.4641 4.18437 18.9092 4.51256 19.2374C4.84075 19.5656 5.28587 19.75 5.75 19.75H16.25C16.7141 19.75 17.1592 19.5656 17.4874 19.2374C17.8156 18.9092 18 18.4641 18 18V7.5L12.75 2.25Z" stroke="#6F6F6F" stroke-width="1.75" stroke-linecap="round" stroke-linejoin="round"/>
<path id="Vector_2" d="M12.75 2.25V7.5H18" stroke="#6F6F6F" stroke-width="1.75" stroke-linecap="round" stroke-linejoin="round"/>
<path id="Vector_3" d="M14.5 11.875H7.5" stroke="#6F6F6F" stroke-width="1.75" stroke-linecap="round" stroke-linejoin="round"/>
<path id="Vector_4" d="M14.5 15.375H7.5" stroke="#6F6F6F" stroke-width="1.75" stroke-linecap="round" stroke-linejoin="round"/>
<path id="Vector_5" d="M9.25 8.375H8.375H7.5" stroke="#6F6F6F" stroke-width="1.75" stroke-linecap="round" stroke-linejoin="round"/>
</g>
</svg>
