<svg width="16" height="16" viewBox="0 0 16 16" fill="none" xmlns="http://www.w3.org/2000/svg">
<g id="info">
<g id="icon">
<path d="M7.07587 4.58359C7.03192 4.69149 7.00977 4.80778 7.00977 4.93247C7.00977 5.05716 7.03192 5.17517 7.07587 5.2864C7.12345 5.3943 7.18773 5.48865 7.26909 5.56955C7.35044 5.65045 7.44524 5.71446 7.55383 5.76168C7.61049 5.7857 7.66933 5.80358 7.73071 5.81532C7.78991 5.82678 7.85129 5.83247 7.91485 5.83247C8.03688 5.83247 8.15202 5.80891 8.26061 5.76168C8.31364 5.73866 8.3634 5.71157 8.40989 5.6806C8.45856 5.64801 8.50359 5.61099 8.54536 5.56955C8.62671 5.48865 8.691 5.3943 8.73858 5.2864C8.76037 5.23512 8.77744 5.18239 8.78906 5.12822C8.80287 5.06492 8.80977 4.99965 8.80977 4.93247C8.80977 4.87279 8.80432 4.815 8.79342 4.75912C8.7818 4.69835 8.76328 4.63984 8.73858 4.58359C8.691 4.47236 8.62671 4.37629 8.54536 4.29539C8.4858 4.23634 8.41933 4.18623 8.3456 4.14515C8.31836 4.12998 8.29003 4.11599 8.26061 4.10326C8.15202 4.05604 8.03688 4.03247 7.91485 4.03247C7.84294 4.03247 7.77357 4.03987 7.70674 4.0545C7.65408 4.06615 7.60323 4.0824 7.55383 4.10326C7.44524 4.15048 7.35044 4.21449 7.26909 4.29539C7.18773 4.37629 7.12345 4.47236 7.07587 4.58359Z" fill="#868DA0"/>
<path d="M8.82398 6.65747H6.70239C6.31447 6.65747 6 6.97194 6 7.35986C6 7.74778 6.31447 8.06226 6.70239 8.06226H7.23975V11.1769C7.23975 11.6144 7.59439 11.969 8.03186 11.969C8.46933 11.969 8.82398 11.6144 8.82398 11.1769V6.65747Z" fill="#868DA0"/>
<path fill-rule="evenodd" clip-rule="evenodd" d="M8 15C11.866 15 15 11.866 15 8C15 4.13401 11.866 1 8 1C4.13401 1 1 4.13401 1 8C1 11.866 4.13401 15 8 15ZM8 13.5C11.0376 13.5 13.5 11.0376 13.5 8C13.5 4.96243 11.0376 2.5 8 2.5C4.96243 2.5 2.5 4.96243 2.5 8C2.5 11.0376 4.96243 13.5 8 13.5Z" fill="#868DA0"/>
</g>
</g>
</svg>
